<svg width="276" height="36" xmlns="http://www.w3.org/2000/svg">
 <!-- Created with Method Draw - http://github.com/duopixel/Method-Draw/ -->

 <g>
  <title>Layer 1</title>
  <text font-weight="bold" stroke="#000" transform="matrix(1.0827292203903198,0,0,1,-0.12797176279127598,0) " xml:space="preserve" text-anchor="start" font-family="Helvetica, Arial, sans-serif" font-size="24" id="svg_1" y="31.01586" x="1.54965" stroke-width="0" fill="#ffffff">CHENGSHOES</text>
  <!-- Generator: Sketch 55.2 (78181) - https://sketchapp.com -->
  <desc transform="matrix(0.012976188459063787,0,0,0.012976188459063787,0,0) ">Created with Sketch.</desc>
  <g stroke="null" id="svg_22">
   <g transform="rotate(-90 214.1418151855469,84.37061309814452) matrix(0.5750771161579307,0,0,0.8289910544610916,-5897.610237431806,-1117.346153746359) " fill-rule="evenodd" fill="none" id="svg_12">
    <g stroke="null" fill-rule="nonzero" fill="#FFFFFF" id="svg_13">
     <g stroke="null" id="svg_14">
      <g stroke="null" id="svg_16">
       <g stroke="null" id="svg_17">
        <path stroke-width="0" stroke="null" id="svg_20" d="m10731.96592,1462.50702c0,-0.49091 -0.32974,-0.81818 -0.82435,-0.81818l-14.34368,0c-0.49461,0 -0.82435,0.32727 -0.82435,0.81818c0,0.49091 0.32974,0.81818 0.82435,0.81818l14.34368,0c0.49461,0 0.82435,-0.40909 0.82435,-0.81818z"/>
        <path stroke-width="0" stroke="null" id="svg_19" d="m10720.09529,1465.77975l-1.6487,0c-0.49461,0 -0.82435,0.32727 -0.82435,0.81818c0,0.49091 0.32974,0.81818 0.82435,0.81818l1.6487,0c0.49461,0 0.82435,-0.32727 0.82435,-0.81818c0,-0.49091 -0.32974,-0.81818 -0.82435,-0.81818z"/>
        <path stroke-width="0" stroke="null" id="Path" d="m10723.96973,1458.41611c0,-0.49091 -0.32974,-0.81818 -0.82435,-0.81818l-7.99619,0c-0.49461,0 -0.82435,0.32727 -0.82435,0.81818c0,0.49091 0.32974,0.81819 0.82435,0.81819l7.99619,0c0.49461,0 0.82435,-0.4091 0.82435,-0.81819z"/>
        <path stroke-width="0" stroke="null" id="svg_18" d="m10764.93991,1459.80702c-0.24731,-0.49091 -0.74192,-0.9 -1.23653,-1.14545l-6.26505,-2.37273l0,0l0,0l-2.55549,-0.9c-0.74191,-0.32727 -1.40139,-0.81818 -1.81357,-1.47273l-2.14331,-3.51818c0.41218,-0.08182 0.65948,-0.40909 0.65948,-0.81818c0,-0.49091 -0.32974,-0.81818 -0.82435,-0.81818l-0.82435,0l-0.98922,-1.63637c0.41218,-0.08181 0.65948,-0.40909 0.65948,-0.81818c0,-0.49091 -0.32974,-0.81818 -0.82435,-0.81818l-0.82434,0l-0.82435,-1.30909c0.32974,-0.08182 0.57704,-0.40909 0.57704,-0.73636c0,-0.49091 -0.32974,-0.81819 -0.82435,-0.81819l-0.74191,0l-1.07166,-1.71818c0,0 0,-0.08182 -0.08243,-0.08182c-0.98922,-1.14545 -2.30818,-1.71818 -3.70958,-1.55454c-1.23652,0.16364 -2.22574,0.9 -2.63792,1.8c-0.08243,0.24545 -0.08243,0.49091 0.08244,0.73636l6.8421,11.61818c0.08244,0.16364 0.24731,0.32728 0.41218,0.32728l8.40836,3.19091l0.08244,0l2.47305,0.9l0,0l0,0l0,0l0,0l0,0l6.18262,2.37272c0.16487,0.08182 0.32974,0.16364 0.41217,0.40909c0.32974,0.65455 0.32974,1.3091 -0.08243,1.96364l-13.4369,0c-0.82435,0 -1.6487,-0.24545 -2.30818,-0.73636l-22.99935,-16.93637c0,0 0.32974,-0.16363 0.74191,-0.73636c0.41217,-0.57273 0.57704,-1.30909 0.57704,-2.04545l-0.74191,-6.87273l0.98922,-1.55455c0.2473,-0.32727 0.74191,-0.40909 1.07165,-0.16363c0.24731,0.24545 1.23653,1.06363 3.62714,4.90909c1.23653,1.8 3.21497,3.10909 5.44071,3.43636c0.41218,0.08182 0.90678,-0.24545 0.98922,-0.65454c0.08243,-0.4091 -0.24731,-0.9 -0.65948,-0.98182c-1.73113,-0.32728 -3.37983,-1.30909 -4.36905,-2.78182c-2.88523,-4.41818 -3.70958,-5.07273 -4.03932,-5.31818c-1.07165,-0.73637 -2.55548,-0.49091 -3.37983,0.57272l-5.02853,7.93637c-0.32974,0.49091 -0.41218,1.06363 -0.32974,1.63636c-0.49461,0.16364 -0.98922,0.40909 -1.23653,0.9l-1.31896,2.04546c-0.74191,1.06363 -0.41217,2.53636 0.65948,3.27272c0.74192,0.57273 2.30818,1.55455 4.61636,3.02728c0.16487,0.08181 0.32974,0.16363 0.41218,0.16363c0.2473,0 0.49461,-0.16363 0.65948,-0.40909c0.2473,-0.40909 0.16487,-0.9 -0.24731,-1.14545c-2.22574,-1.47273 -3.79201,-2.45455 -4.53392,-3.02728c-0.32974,-0.24545 -0.41218,-0.65454 -0.16487,-1.06363l1.23652,-1.88182c0.24731,-0.32727 0.74192,-0.40909 1.07166,-0.16364l0,0l25.88458,19.14546c0.98922,0.73636 2.1433,1.06363 3.29739,1.06363l11.37603,0c-1.73114,0.81819 -4.12175,1.55455 -6.18262,1.55455l0,0l-2.88523,0l-2.39061,0l0,0c-1.4014,0 -2.80279,-0.40909 -3.95688,-1.14545c-4.78123,-3.02728 -13.6842,-8.67273 -20.19656,-12.84546c-0.41218,-0.24545 -0.90679,-0.16364 -1.15409,0.24546c-0.24731,0.40909 -0.16487,0.9 0.2473,1.14545c6.34749,4.09091 15.00316,9.57273 19.86683,12.68182l-21.26822,0c-0.49461,0 -0.82435,0.32727 -0.82435,0.81818c0,0.49091 0.32974,0.81818 0.82435,0.81818l26.46162,0l0,0l2.39061,0l2.80279,0l0,0c3.37984,0 8.2435,-1.8 9.48002,-3.51818c1.07166,-1.47273 1.15409,-2.86364 0.41218,-4.17273zm-18.21813,-7.36363l-6.42993,-10.88182c0.24731,-0.24546 0.65948,-0.49091 1.15409,-0.57273c0.49461,-0.08182 1.4014,0 2.22575,0.9l0.49461,0.81818l-0.74192,0c-0.49461,0 -0.82435,0.32728 -0.82435,0.81818c0,0.49091 0.32974,0.81819 0.82435,0.81819l1.73114,0l0.82435,1.30909l-0.65948,0c-0.49461,0 -0.82435,0.32727 -0.82435,0.81818c0,0.49091 0.32974,0.81818 0.82435,0.81818l1.6487,0l0.98922,1.55455l-0.65948,0c-0.49461,0 -0.82435,0.32727 -0.82435,0.81818c0,0.49091 0.32974,0.81818 0.82435,0.81818l1.64869,0l2.30818,3.6l-4.53392,-1.63636zm-25.38997,-10.88182l2.55549,-4.00909l0.49461,4.74545c0,0.32727 -0.08244,0.65455 -0.24731,0.9c-0.16487,0.24546 -0.49461,0.9 -1.23652,0.32727c0,0 -0.41218,-0.24545 -1.15409,-0.81818c-0.49461,-0.40909 -0.57705,-0.81818 -0.41218,-1.14545z"/>
       </g>
      </g>
      <path stroke-width="0" stroke="null" id="svg_15" d="m10497.91597,1459.05045l-2.78321,0l0,7.5293l-5.1416,0l0,-21.32812l8.39356,0c2.5293,0 4.50682,0.56151 5.93261,1.68457c1.42579,1.12305 2.13867,2.70995 2.13867,4.76074c0,1.48438 -0.30029,2.71484 -0.90087,3.6914c-0.60059,0.97657 -1.54053,1.76758 -2.81983,2.37305l4.45313,8.59863l0,0.21973l-5.50782,0l-3.76464,-7.5293zm-2.78321,-3.96972l3.25196,0c0.97656,0 1.71142,-0.25635 2.20459,-0.76905c0.49316,-0.51269 0.73974,-1.22802 0.73974,-2.14599c0,-0.91798 -0.24902,-1.63818 -0.74707,-2.16065c-0.49805,-0.52246 -1.23046,-0.78369 -2.19726,-0.78369l-3.25196,0l0,5.85938zm32.49024,1.27441c0,2.08009 -0.38574,3.92089 -1.15723,5.52246c-0.77149,1.60157 -1.86767,2.83447 -3.28857,3.69873c-1.42091,0.86426 -3.03955,1.29639 -4.85596,1.29639c-1.81642,0 -3.42773,-0.41748 -4.83399,-1.25244c-1.40625,-0.83497 -2.50243,-2.0288 -3.28857,-3.58155c-0.78614,-1.55274 -1.19873,-3.33495 -1.23779,-5.34668l0,-1.20117c0,-2.08985 0.38329,-3.93309 1.1499,-5.52978c0.7666,-1.59669 1.86523,-2.82959 3.2959,-3.69873c1.43067,-0.86915 3.05907,-1.30371 4.88525,-1.30371c1.80665,0 3.41796,0.42968 4.83399,1.28906c1.41602,0.85938 2.51708,2.08251 3.30322,3.66943c0.78614,1.58692 1.18408,3.40575 1.19385,5.45655l0,0.98144zm-5.2295,-0.89355c0,-2.11916 -0.354,-3.72803 -1.06201,-4.82666c-0.70801,-1.09864 -1.72118,-1.64795 -3.03955,-1.64795c-2.57814,0 -3.94043,1.93357 -4.08691,5.80078l-0.01465,1.56738c0,2.08985 0.34668,3.69628 1.04004,4.81934c0.69336,1.12305 1.72362,1.68457 3.09082,1.68457c1.29883,0 2.2998,-0.55176 3.00293,-1.65528c0.70313,-1.10352 1.05957,-2.69042 1.06933,-4.76074l0,-0.98144zm25.13672,3.89648c-0.06836,1.48438 -0.46874,2.7954 -1.20117,3.93311c-0.73242,1.1377 -1.76025,2.01904 -3.08349,2.64404c-1.32325,0.625 -2.83447,0.9375 -4.5337,0.9375c-2.80274,0 -5.00975,-0.91308 -6.62109,-2.73926c-1.61134,-1.82618 -2.41699,-4.40428 -2.41699,-7.73437l0,-1.05469c0,-2.08986 0.36376,-3.91845 1.09131,-5.48584c0.72754,-1.56739 1.77489,-2.77832 3.14209,-3.63281c1.36719,-0.8545 2.94921,-1.28174 4.74609,-1.28174c2.5879,0 4.66796,0.68114 6.24023,2.04345c1.57228,1.36232 2.46582,3.23974 2.68067,5.63233l-5.12695,0c-0.03907,-1.29884 -0.36621,-2.23144 -0.98145,-2.79785c-0.61524,-0.56641 -1.55273,-0.84961 -2.8125,-0.84961c-1.2793,0 -2.21679,0.47851 -2.8125,1.43555c-0.59571,0.95703 -0.9082,2.48534 -0.9375,4.58496l0,1.50879c0,2.2754 0.28564,3.90136 0.85693,4.87792c0.5713,0.97657 1.55517,1.46485 2.95166,1.46485c1.18165,0 2.08496,-0.27832 2.70996,-0.83496c0.62501,-0.55665 0.95704,-1.44043 0.9961,-2.65137l5.1123,0zm9.68262,-0.71777l-2.10937,2.31445l0,5.625l-5.14161,0l0,-21.32812l5.14161,0l0,9.40429l1.7871,-2.70996l4.59961,-6.69433l6.35743,0l-7.20704,9.43359l7.20704,11.89453l-6.09375,0l-4.54102,-7.93945zm25.16602,-1.09864l-8.08594,0l0,5.08301l9.55078,0l0,3.95508l-14.69238,0l0,-21.32812l14.72168,0l0,3.96972l-9.58008,0l0,4.49707l8.08594,0l0,3.82324zm20.5957,-8.32031l-6.40137,0l0,17.3584l-5.1416,0l0,-17.3584l-6.28418,0l0,-3.96972l17.82715,0l0,3.96972zm12.93457,11.68945c0,-0.75195 -0.26611,-1.33788 -0.79834,-1.75781c-0.53223,-0.41992 -1.46728,-0.85449 -2.80518,-1.30371c-1.33789,-0.44922 -2.43163,-0.88379 -3.28125,-1.30371c-2.76368,-1.35743 -4.1455,-3.22264 -4.1455,-5.5957c0,-1.18165 0.34423,-2.22412 1.03271,-3.12744c0.68848,-0.90333 1.66259,-1.60645 2.92236,-2.10938c1.25978,-0.50293 2.67578,-0.75439 4.24805,-0.75439c1.53321,0 2.90771,0.27343 4.12354,0.82031c1.21582,0.54688 2.16064,1.32568 2.83447,2.33642c0.67383,1.01075 1.01074,2.16553 1.01074,3.46436l-5.12695,0c0,-0.86914 -0.26611,-1.54297 -0.79834,-2.02148c-0.53223,-0.47852 -1.25244,-0.71778 -2.16065,-0.71778c-0.91797,0 -1.64306,0.20264 -2.17529,0.60791c-0.53223,0.40528 -0.79834,0.92041 -0.79834,1.54541c0,0.54688 0.29297,1.04248 0.87891,1.48682c0.58594,0.44434 1.6162,0.90332 3.09082,1.37695c1.47461,0.47364 2.68554,0.98389 3.63281,1.53076c2.3047,1.32814 3.45703,3.15917 3.45703,5.49317c0,1.86524 -0.70312,3.33007 -2.10937,4.39453c-1.40626,1.06446 -3.33495,1.59668 -5.78614,1.59668c-1.72852,0 -3.29345,-0.31006 -4.69482,-0.93018c-1.40138,-0.62012 -2.45605,-1.46972 -3.16406,-2.54883c-0.70801,-1.0791 -1.06201,-2.32177 -1.06201,-3.72802l5.15625,0c0,1.14258 0.2954,1.98486 0.88623,2.52685c0.59082,0.542 1.55028,0.81299 2.87841,0.81299c0.84962,0 1.521,-0.1831 2.01416,-0.54932c0.49317,-0.36621 0.73975,-0.88134 0.73975,-1.54541zm25.60547,5.66895l-5.11231,0l0,-8.90625l-7.57324,0l0,8.90625l-5.1416,0l0,-21.32812l5.1416,0l0,8.46679l7.57324,0l0,-8.46679l5.11231,0l0,21.32812zm21.31347,-10.22461c0,2.08009 -0.38573,3.92089 -1.15722,5.52246c-0.77149,1.60157 -1.86767,2.83447 -3.28858,3.69873c-1.4209,0.86426 -3.03954,1.29639 -4.85595,1.29639c-1.81642,0 -3.42773,-0.41748 -4.83399,-1.25244c-1.40626,-0.83497 -2.50244,-2.0288 -3.28857,-3.58155c-0.78614,-1.55274 -1.19873,-3.33495 -1.23779,-5.34668l0,-1.20117c0,-2.08985 0.38329,-3.93309 1.1499,-5.52978c0.7666,-1.59669 1.86523,-2.82959 3.2959,-3.69873c1.43067,-0.86915 3.05907,-1.30371 4.88525,-1.30371c1.80665,0 3.41796,0.42968 4.83398,1.28906c1.41603,0.85938 2.51709,2.08251 3.30323,3.66943c0.78613,1.58692 1.18408,3.40575 1.19384,5.45655l0,0.98144zm-5.22949,-0.89355c0,-2.11916 -0.354,-3.72803 -1.06201,-4.82666c-0.70801,-1.09864 -1.72118,-1.64795 -3.03955,-1.64795c-2.57814,0 -3.94043,1.93357 -4.08691,5.80078l-0.01465,1.56738c0,2.08985 0.34667,3.69628 1.04004,4.81934c0.69336,1.12305 1.72362,1.68457 3.09082,1.68457c1.29883,0 2.2998,-0.55176 3.00293,-1.65528c0.70312,-1.10352 1.05957,-2.69042 1.06933,-4.76074l0,-0.98144zm21.1084,2.08007l-8.08594,0l0,5.08301l9.55078,0l0,3.95508l-14.69238,0l0,-21.32812l14.72168,0l0,3.96972l-9.58008,0l0,4.49707l8.08594,0l0,3.82324zm14.56055,3.36914c0,-0.75195 -0.26611,-1.33788 -0.79834,-1.75781c-0.53223,-0.41992 -1.46728,-0.85449 -2.80518,-1.30371c-1.3379,-0.44922 -2.43163,-0.88379 -3.28125,-1.30371c-2.76368,-1.35743 -4.14551,-3.22264 -4.14551,-5.5957c0,-1.18165 0.34424,-2.22412 1.03272,-3.12744c0.68848,-0.90333 1.66259,-1.60645 2.92236,-2.10938c1.25977,-0.50293 2.67578,-0.75439 4.24805,-0.75439c1.53321,0 2.90771,0.27343 4.12353,0.82031c1.21583,0.54688 2.16065,1.32568 2.83448,2.33642c0.67383,1.01075 1.01074,2.16553 1.01074,3.46436l-5.12695,0c0,-0.86914 -0.26611,-1.54297 -0.79834,-2.02148c-0.53223,-0.47852 -1.25244,-0.71778 -2.16065,-0.71778c-0.91797,0 -1.64306,0.20264 -2.17529,0.60791c-0.53223,0.40528 -0.79834,0.92041 -0.79834,1.54541c0,0.54688 0.29297,1.04248 0.87891,1.48682c0.58594,0.44434 1.6162,0.90332 3.09082,1.37695c1.47461,0.47364 2.68554,0.98389 3.63281,1.53076c2.3047,1.32814 3.45703,3.15917 3.45703,5.49317c0,1.86524 -0.70312,3.33007 -2.10938,4.39453c-1.40625,1.06446 -3.33494,1.59668 -5.78613,1.59668c-1.72852,0 -3.29345,-0.31006 -4.69482,-0.93018c-1.40138,-0.62012 -2.45605,-1.46972 -3.16407,-2.54883c-0.70801,-1.0791 -1.06201,-2.32177 -1.06201,-3.72802l5.15625,0c0,1.14258 0.29541,1.98486 0.88623,2.52685c0.59083,0.542 1.55029,0.81299 2.87842,0.81299c0.84962,0 1.521,-0.1831 2.01416,-0.54932c0.49317,-0.36621 0.73975,-0.88134 0.73975,-1.54541z"/>
     </g>
    </g>
   </g>
  </g>
 </g>
</svg>